<svg width="36" height="36" viewBox="0 0 36 36" fill="none" xmlns="http://www.w3.org/2000/svg">
<g clip-path="url(#clip0_148_129)">
<path d="M34.345 24.6152C32.763 23.6382 30.053 25.3302 28.67 23.9472C27.793 23.0702 20.686 15.4312 17.559 12.4542C14.432 9.47722 10.937 6.80021 10.12 6.06521C9.64298 5.63621 11.196 2.51521 9.88198 1.20121C8.48798 -0.191786 6.56598 -0.347786 5.17298 1.04521C4.31698 1.90021 4.71198 3.33021 4.11098 3.72821C3.50998 4.12621 1.89898 4.31821 1.04498 5.17321C-0.348018 6.56521 -0.146018 8.85621 1.44098 10.0232C3.06198 11.2152 5.49398 9.92821 6.44798 10.2142C7.74898 10.6042 11.182 14.4372 15.795 19.0362C20.098 23.3262 23.677 28.2072 24.045 28.6212C24.808 29.4792 22.567 32.3882 24.713 34.7732C26.031 36.2372 28.423 36.2622 29.816 34.8682C30.672 34.0142 30.622 31.1472 31.39 30.5762C32.158 30.0052 33.92 30.5252 34.776 29.6702C36.167 28.2782 35.966 25.6172 34.345 24.6152Z" fill="#FFE8B6"/>
<path d="M5.11297 3.01332C5.20797 1.86832 6.54397 0.295319 8.02197 0.438319C9.49997 0.581319 10.025 2.10732 9.88197 2.91832C9.73797 3.72832 9.49997 4.49132 9.40397 5.11132C9.30897 5.73132 9.26097 6.20832 10.501 7.11432C11.741 8.02032 21.898 17.2713 24.235 20.0853C26.572 22.8993 27.955 24.6633 28.908 24.9013C29.862 25.1393 30.72 25.0443 31.626 24.9013C32.473 24.7673 34.473 24.3263 35.355 25.7863C35.128 25.3113 34.798 24.8953 34.345 24.6153C32.763 23.6383 30.053 25.3303 28.67 23.9473C27.793 23.0703 20.686 15.4313 17.559 12.4543C14.432 9.47732 10.937 6.79932 10.12 6.06432C9.64297 5.63532 11.196 2.51432 9.88197 1.20032C8.48797 -0.191681 6.56597 -0.347681 5.17297 1.04532C4.31697 1.90032 4.71197 3.33032 4.11097 3.72832C3.97097 3.82132 3.77097 3.90332 3.54297 3.98532C4.49597 3.93032 5.03697 3.92532 5.11297 3.01332Z" fill="#F2C994"/>
<path d="M35.537 27.9531C35.394 29.1931 33.057 30.0991 31.579 29.6221C30.706 29.3401 29.862 29.4791 29.958 30.3851C30.053 31.2911 30.196 32.6261 29.672 33.6751C29.195 34.6291 27.192 35.1061 25.905 34.2001C24.719 33.3651 24.522 31.2431 25.047 30.2421C25.572 29.2411 25.619 28.5731 24.379 27.0471C23.751 26.2741 20.27 22.2821 16.368 18.1771C12.567 14.1791 8.77498 10.3491 7.97498 9.78406C6.35198 8.64006 5.50898 9.12206 4.34998 9.40306C2.77598 9.78406 1.24998 8.68806 0.963982 7.97206C0.708982 7.33306 0.735982 5.84206 1.20698 5.03906C1.15298 5.08406 1.09398 5.12406 1.04498 5.17306C-0.348018 6.56506 -0.146018 8.85606 1.44098 10.0231C3.06198 11.2151 5.49398 9.92806 6.44798 10.2141C7.74898 10.6041 11.182 14.4371 15.795 19.0361C20.098 23.3261 23.677 28.2071 24.045 28.6211C24.808 29.4791 22.567 32.3881 24.713 34.7731C26.031 36.2371 28.423 36.2621 29.816 34.8681C30.671 34.0141 30.622 31.1471 31.39 30.5761C32.157 30.0051 33.92 30.5251 34.776 29.6701C35.334 29.1131 35.624 28.3531 35.682 27.5771C35.617 27.6031 35.564 27.7191 35.537 27.9531Z" fill="#D99E82"/>
</g>
<defs>
<clipPath id="clip0_148_129">
<rect width="36" height="36" fill="white"/>
</clipPath>
</defs>
</svg>
